<?xml version="1.0" encoding="iso-8859-1"?>
<!-- Generator: Adobe Illustrator 15.0.0, SVG Export Plug-In . SVG Version: 6.00 Build 0)  -->
<!DOCTYPE svg PUBLIC "-//W3C//DTD SVG 1.1//EN" "http://www.w3.org/Graphics/SVG/1.1/DTD/svg11.dtd">
<svg version="1.1" id="Layer_1" xmlns="http://www.w3.org/2000/svg"  x="0px" y="0px"
	 width="150px" height="150px" viewBox="0 0 150 150" style="enable-background:new 0 0 150 150;" xml:space="preserve">
<path style="fill:#595E66;" d="M76.217,0C44.479,0,18.653,25.822,18.653,57.565c0,13.067,4.287,25.392,12.409,35.662L76.217,150
	l45.164-56.783c8.113-10.26,12.402-22.584,12.402-35.652C133.783,25.822,107.957,0,76.217,0z"/>
<circle style="fill:#3D4755;" cx="76.217" cy="57.773" r="46.875"/>
<path style="fill:#38B449;" d="M42.153,27.97c0,7.163-5.804,12.967-12.967,12.967c-7.164,0-12.97-5.804-12.97-12.967
	c0-7.166,5.806-12.97,12.97-12.97S42.153,20.804,42.153,27.97z"/>
<g>
	<path style="fill:none;" d="M90.939,68.625c0.022,2.576,2.097,4.78,4.777,4.78c2.694,0,4.779-2.074,4.779-4.78
		c0-2.695-2.202-4.779-4.779-4.779C93.141,63.846,90.939,66.047,90.939,68.625z"/>
	<path style="fill:none;" d="M53.761,63.846c-2.577,0-4.779,2.202-4.779,4.779c0,2.576,2.097,4.78,4.779,4.78
		c2.694,0,4.779-2.074,4.779-4.78C58.541,65.93,56.467,63.728,53.761,63.846z"/>
	<polygon style="fill:none;" points="97.077,59 95.999,56.763 95.477,59 	"/>
	<g>
		<path style="fill:none;" d="M53.761,63.846c-2.577,0-4.779,2.202-4.779,4.779c0,2.576,1.25,3.084,3.932,3.084
			c2.694,0,7.322-0.378,7.322-3.084C60.236,65.93,56.467,63.728,53.761,63.846z"/>
		<path style="fill:none;" d="M89.244,68.625c0.023,2.576,4.64,3.084,7.32,3.084c2.694,0,3.933-0.378,3.933-3.084
			c0-2.695-2.202-4.779-4.779-4.779S89.244,66.047,89.244,68.625z"/>
		<path style="fill:#FFFFFF;" d="M89.927,61c-0.017,0-0.032,0-0.05,0c-1.188,0-2.197-1-2.438-2H52.321l6.477-13.693
			C60.133,42.623,61.234,42,64.057,42h2.157l-0.977-0.225c-0.273-0.052-0.537-0.168-0.779-0.306l-0.49-0.287
			c-0.968-0.548-1.467-1.667-1.232-2.755c0.235-1.087,1.149-1.898,2.257-1.999l14.139-1.345L79.134,35H61.375
			c-2.577,0-5.635,2.018-6.735,4.338l-9.49,19.979c-0.983,1.955-1.15,3.451-1.15,5.29V84.18c0,0.842,0.472,1.82,1.327,1.82h7.72
			C53.89,86,54,85.035,54,84.18V79h41v5.168C95,85.011,95.857,86,96.713,86h7.579c0.867,0,1.708-0.965,1.708-1.82V64.606
			c0-1.839-0.379-3.303-1.234-5.258l-3.084-6.316l-4.502-1.497l-1.173,5.033L97.077,59h-1.601h-3.061l-0.014,0.043
			C92.137,60.199,91.107,61,89.927,61z M52.914,71.709c-2.682,0-3.932-0.508-3.932-3.084c0-2.577,2.202-4.779,4.779-4.779
			c2.706-0.118,6.475,2.084,6.475,4.779C60.236,71.331,55.607,71.709,52.914,71.709z M95.718,63.846
			c2.577,0,4.779,2.084,4.779,4.779c0,2.706-1.237,3.084-3.933,3.084c-2.682,0-7.297-0.508-7.32-3.084
			C89.244,66.047,93.141,63.846,95.718,63.846z"/>
		<path style="fill:#FFFFFF;" d="M105.579,49.542l-9.157-6.946l-1.225-0.958l-0.777-0.609l-0.908-0.712l0.678-0.633l11.179-10.426
			l-13.3,5.381l-2.117,0.856l0.201-2.344l0.033-0.369l1.057-12.166l-4.311,10.832l-1.529,3.853l-0.644-3.95l-1.63-10.025
			l-1.048,10.025l-0.392,3.791l-0.221,2.128l-0.023,0.229L69.344,38.59l-4.123,0.372l0.49,0.277l2.389,0.454l14.35,2.725
			l-8.696,11.087l13.671-8.3l2.503,13.156l1.818-7.875l0.014,0.025l1.188-5.184l2.346,0.798l3.354,1.142l-0.034-0.071
			L105.579,49.542z"/>
	</g>
</g>
</svg>
